<?xml version="1.0" encoding="utf-8"?>
<!-- Generator: Adobe Illustrator 29.3.1, SVG Export Plug-In . SVG Version: 9.03 Build 55982)  -->
<svg version="1.1" id="Layer_1" xmlns:xlink="http://www.w3.org/1999/xlink"
	 xmlns="http://www.w3.org/2000/svg" x="0px" y="0px" viewBox="0 0 85 84"
	 style="enable-background:new 0 0 85 84;" xml:space="preserve">
<style type="text/css">
	.st0{fill:url(#SVGID_00000140718086103701130010000011278260634000635279_);}
	.st1{fill:url(#SVGID_00000124860061363465678660000011025462448792447885_);}
	.st2{fill:#FFFFFF;}
	.st3{fill:none;stroke:#FFF100;stroke-width:1.109;}
	.st4{fill:#0054A5;}
</style>
<g>
	<g>
		
			<linearGradient id="SVGID_00000173157381381764404660000014596822736699732368_" gradientUnits="userSpaceOnUse" x1="-12.6988" y1="-684.2873" x2="63.7881" y2="-684.2873" gradientTransform="matrix(1 0 0 -1 16.7998 -642.9775)">
			<stop  offset="0" style="stop-color:#3CB44A"/>
			<stop  offset="1" style="stop-color:#B21E8D"/>
		</linearGradient>
		<path id="SVGID_1_" style="fill:url(#SVGID_00000173157381381764404660000014596822736699732368_);" d="M54.9,3
			c-1.2,0.3-2.3,1.5-3.4,3.9c-2.1,4.6-3.5,8-4.2,10.3c-0.4,2-1.2,5.1-2.4,9s-1.7,7.5-1.7,11.1c-0.1,0.1-0.8-1.2-2.1-3.9
			c-1.3-2.8-1.8-5-1.4-6.9c0,0-0.1-0.6-0.4-1.6c-0.3-1-0.7-0.5-1.3,1.7c-0.1,1.1,0.1,3.1,0.8,5.7c0.6,2.7,1.6,5.1,2.9,7.3
			c-2.1-1.4-4.4-2.5-6.9-3.3c-2.5-0.7-4.4-1-5.6-1c-2.1,0.2-2.2,0.7-0.3,1.6c1.9-0.2,4.2,0.5,6.8,2c2.7,1.5,3.9,2.4,3.7,2.5
			c-3.6-0.3-7.3-0.1-11.2,0.6c-3.9,0.7-6.9,1.2-9.2,1.5c-2.2,0.4-5.7,1.4-10.5,3c-2.3,0.8-3.8,1.8-4.2,3V51c0.2,0.8,0.8,1.6,1.8,2.6
			c1.1,1.2,2,1.8,2.7,1.9c0.6,0,1.8,0.2,3.5,0.5c2.1,3.6,5.3,6.6,9.6,9.2c4.3,2.6,7.4,3,9.5,1.2c-0.8,3.1-0.5,5.5,1,7.3
			c3.4,4.5,7.9,6.4,13.5,5.7c5.6-0.7,9.1-4.4,10.3-10.9c0.2-1.7,0.4-2.6,0.4-2.4c0,0.6,0,0.7,0,0.3c0-0.2,0-0.3,0-0.3
			c0-0.9,0.1-3.1,0.2-6.5l4.8,2l-1.9-5.2c3.5,0.2,5.6,0.4,6.4,0.5C65.6,57,65.7,57,66.1,57c0.3,0,0.3,0-0.2-0.1
			c0.3-0.1,1.2-0.2,2.4-0.3c6.6-0.5,10.5-3.5,11.7-9c1.2-5.5-0.2-10.2-4.2-14.2c-1.6-1.6-4-2.2-7-1.9c1.8-1.7,1.7-4.9-0.3-9.5
			s-4.7-8.2-8-10.7c-0.1-1.6-0.1-2.8-0.2-3.4c-0.1-0.6-0.6-1.6-1.6-2.9S56.8,3.2,55.9,3L54.9,3L54.9,3z"/>
	</g>
</g>
<g>
	<g>
		
			<linearGradient id="SVGID_00000150080139727931556000000017944861312703010983_" gradientUnits="userSpaceOnUse" x1="1.103" y1="-714.2824" x2="58.1694" y2="-663.3456" gradientTransform="matrix(1 0 0 -1 16.7998 -642.9775)">
			<stop  offset="0" style="stop-color:#78BF44"/>
			<stop  offset="1" style="stop-color:#7D4D8F"/>
		</linearGradient>
		<path id="SVGID_4_" style="fill:url(#SVGID_00000150080139727931556000000017944861312703010983_);" d="M54.9,3
			c-1.2,0.3-2.3,1.5-3.4,3.9c-2.1,4.6-3.5,8-4.2,10.3c-0.4,2-1.2,5.1-2.4,9s-1.7,7.5-1.7,11.1c-0.1,0.1-0.8-1.2-2.1-3.9
			c-1.3-2.8-1.8-5-1.4-6.9c0,0-0.1-0.6-0.4-1.6c-0.3-1-0.7-0.5-1.3,1.7c-0.1,1.1,0.1,3.1,0.8,5.7c0.6,2.7,1.6,5.1,2.9,7.3
			c-2.1-1.4-4.4-2.5-6.9-3.3c-2.5-0.7-4.4-1-5.6-1c-2.1,0.2-2.2,0.7-0.3,1.6c1.9-0.2,4.2,0.5,6.8,2c2.7,1.5,3.9,2.4,3.7,2.5
			c-3.6-0.3-7.3-0.1-11.2,0.6c-3.9,0.7-6.9,1.2-9.2,1.5c-2.2,0.4-5.7,1.4-10.5,3c-2.3,0.8-3.8,1.8-4.2,3V51c0.2,0.8,0.8,1.6,1.8,2.6
			c1.1,1.2,2,1.8,2.7,1.9c0.6,0,1.8,0.2,3.5,0.5c2.1,3.6,5.3,6.6,9.6,9.2c4.3,2.6,7.4,3,9.5,1.2c-0.8,3.1-0.5,5.5,1,7.3
			c3.4,4.5,7.9,6.4,13.5,5.7c5.6-0.7,9.1-4.4,10.3-10.9c0.2-1.7,0.4-2.6,0.4-2.4c0,0.6,0,0.7,0,0.3c0-0.2,0-0.3,0-0.3
			c0-0.9,0.1-3.1,0.2-6.5l4.8,2l-1.9-5.2c3.5,0.2,5.6,0.4,6.4,0.5C65.6,57,65.7,57,66.1,57c0.3,0,0.3,0-0.2-0.1
			c0.3-0.1,1.2-0.2,2.4-0.3c6.6-0.5,10.5-3.5,11.7-9c1.2-5.5-0.2-10.2-4.2-14.2c-1.6-1.6-4-2.2-7-1.9c1.8-1.7,1.7-4.9-0.3-9.5
			s-4.7-8.2-8-10.7c-0.1-1.6-0.1-2.8-0.2-3.4c-0.1-0.6-0.6-1.6-1.6-2.9S56.8,3.2,55.9,3L54.9,3L54.9,3z"/>
	</g>
</g>
<g>
	<path class="st2" d="M48.5,24.6c1.5-3.5,5.1-5.9,9.2-5.9s7.5,2.4,9.2,5.9"/>
</g>
<g>
	<path class="st3" d="M48.5,24.6c1.5-3.5,5.1-5.9,9.2-5.9s7.5,2.4,9.2,5.9"/>
</g>
<g>
	<path class="st2" d="M66.7,24.6c-1.5,3.5-5.1,5.9-9.2,5.9c-4.1,0-7.5-2.4-9.2-5.9"/>
</g>
<g>
	<path class="st3" d="M66.7,24.6c-1.5,3.5-5.1,5.9-9.2,5.9c-4.1,0-7.5-2.4-9.2-5.9"/>
</g>
<g>
	<path class="st2" d="M57.6,30.5c4.1,0,7.5-2.4,9.2-5.9c-1.5-3.5-5.1-5.9-9.2-5.9s-7.5,2.4-9.2,5.9C50.1,28.1,53.6,30.5,57.6,30.5"
		/>
</g>
<g>
	<path class="st3" d="M57.6,30.5c4.1,0,7.5-2.4,9.2-5.9c-1.5-3.5-5.1-5.9-9.2-5.9s-7.5,2.4-9.2,5.9C50.1,28.1,53.6,30.5,57.6,30.5z"
		/>
</g>
<g>
	<path class="st4" d="M62.9,24.6c0,3-2.3,5.3-5.3,5.3c-3,0-5.3-2.3-5.3-5.3s2.3-5.3,5.3-5.3C60.6,19.3,62.9,21.7,62.9,24.6"/>
</g>
</svg>
